<svg width="170" height="57" viewBox="0 0 170 57" fill="none" xmlns="http://www.w3.org/2000/svg">
<path d="M0 21.2239C0 32.9395 9.5083 42.4478 21.2239 42.4478V0C9.5083 0 0 9.5083 0 21.2239Z" fill="#016ACD"/>
<path d="M44.8845 31.4113C44.8845 19.6957 35.3762 10.1874 23.6606 10.1874V52.6351C35.3762 52.6351 44.8845 43.1693 44.8845 31.4113Z" fill="#AFD2EA"/>
<path d="M63.0242 56.4069V47.6685H68.5432V48.4733H64.059V51.4628H68.1982V52.2676H64.059V56.2919H63.0242V56.4069Z" fill="#101010"/>
<path d="M79.0063 56.4063V47.6678H80.0412V56.4063H79.0063Z" fill="#101010"/>
<path d="M91.3093 56.4063V47.6678H92.5741L95.5636 52.267C96.1384 53.1868 96.7133 54.1067 97.2882 55.1415C97.2882 54.7966 97.2882 54.4516 97.2882 53.7617C97.2882 53.1868 97.2882 52.612 97.2882 52.152V47.6678H98.3231V56.4063H97.0583L93.8389 51.5771C93.6089 51.2322 93.379 50.8873 93.149 50.5423C92.919 50.1974 92.8041 49.8525 92.5741 49.6225C92.3441 49.2776 92.2292 49.0476 92.2292 48.9326C92.2292 49.0476 92.2292 49.2776 92.2292 49.7375C92.2292 50.1974 92.2292 50.4273 92.2292 50.6573V56.4063H91.3093Z" fill="#101010"/>
<path d="M108.556 56.4063L112.006 47.6678H113.155L116.605 56.4063H115.57L114.65 53.8767H110.626L109.591 56.4063H108.556ZM110.856 52.9569H114.305L113.5 50.8873C113.5 50.7723 113.27 50.4273 113.04 49.7375C112.81 49.1626 112.695 48.7027 112.58 48.3577C112.465 48.7027 112.121 49.6225 111.661 50.8873L110.856 52.9569Z" fill="#101010"/>
<path d="M126.723 56.4063V47.6678H127.987L130.977 52.267C131.552 53.1868 132.127 54.1067 132.702 55.1415C132.702 54.7966 132.702 54.4516 132.702 53.7617C132.702 53.1868 132.702 52.612 132.702 52.152V47.6678H133.736V56.4063H132.587L129.367 51.5771C129.137 51.2322 128.907 50.8873 128.677 50.5423C128.447 50.1974 128.332 49.8525 128.102 49.6225C127.872 49.2776 127.757 49.0476 127.757 48.9326C127.757 49.0476 127.757 49.2776 127.757 49.7375C127.757 50.1974 127.757 50.4273 127.757 50.6573V56.4063H126.723Z" fill="#101010"/>
<path d="M148.799 56.5212C148.109 56.5212 147.534 56.4062 146.959 56.1763C146.384 55.9463 145.924 55.6014 145.579 55.2565C145.235 54.9115 144.89 54.3366 144.775 53.8767C144.66 53.4168 144.43 52.7269 144.43 52.037C144.43 51.3472 144.545 50.7723 144.775 50.3124C145.005 49.7375 145.235 49.2775 145.579 48.8176C145.924 48.3577 146.384 48.1278 146.959 47.8978C147.534 47.6678 148.109 47.5529 148.799 47.5529C149.604 47.5529 150.409 47.7828 150.983 48.1278C151.558 48.5877 152.018 49.1626 152.248 49.8524L151.328 49.9674C151.098 49.3925 150.754 48.9326 150.294 48.7026C149.834 48.3577 149.374 48.2427 148.684 48.2427C148.224 48.2427 147.764 48.3577 147.304 48.5877C146.844 48.8176 146.614 49.0476 146.269 49.3925C145.924 49.7375 145.809 50.0824 145.694 50.5423C145.579 51.0022 145.464 51.4621 145.464 51.9221C145.464 52.497 145.579 52.9569 145.694 53.4168C145.809 53.8767 146.039 54.2216 146.269 54.5666C146.499 54.9115 146.844 55.1415 147.304 55.3714C147.764 55.6014 148.224 55.7164 148.684 55.7164C149.374 55.7164 149.834 55.6014 150.294 55.2565C150.754 54.9115 151.098 54.4516 151.328 53.8767L152.363 53.9917C152.133 54.7965 151.673 55.4864 150.983 55.9463C150.524 56.2913 149.719 56.5212 148.799 56.5212Z" fill="#101010"/>
<path d="M162.941 56.4063V47.6678H168.575V48.4727H163.861V51.3472H168.23V52.152H163.861V55.3714H168.575V56.1763H162.941V56.4063Z" fill="#101010"/>
<path d="M71.6477 42.4937C68.3133 42.4937 65.5538 41.6889 63.2542 40.1942C60.9546 38.5844 59.5749 36.3998 59 33.5254L63.8291 32.3756C64.1741 34.2152 65.0939 35.71 66.4736 36.7448C67.8534 37.7796 69.5781 38.2395 71.6477 38.2395C73.7173 38.2395 75.442 37.7796 76.7068 36.7448C77.9716 35.8249 78.6614 34.4452 78.6614 32.8355C78.6614 31.5707 78.2015 30.5359 77.2817 29.7311C76.3618 28.9262 74.8671 28.2363 72.7975 27.6614L70.038 26.8566C68.7732 26.5116 67.6234 26.0517 66.5886 25.7068C65.6688 25.3618 64.749 24.9019 63.8291 24.327C63.0243 23.7521 62.3344 23.1772 61.7595 22.6023C61.1846 21.9125 60.8397 21.2226 60.4947 20.3028C60.3797 19.4979 60.1498 18.5781 60.1498 17.4283C60.1498 14.5538 61.1846 12.3692 63.3692 10.5295C65.5538 8.91983 68.4283 8 71.7627 8C74.7521 8 77.2817 8.68987 79.2363 10.0696C81.306 11.5644 82.5707 13.519 83.1456 16.0485L78.5465 17.1983C78.0865 15.5886 77.2817 14.4388 76.1319 13.634C74.9821 12.8291 73.4874 12.3692 71.6477 12.3692C69.808 12.3692 68.3133 12.8291 67.1635 13.634C66.0137 14.4388 65.4388 15.5886 65.4388 17.0834C65.4388 17.7732 65.5538 18.3481 65.7838 18.923C66.0137 19.3829 66.3587 19.8428 66.9336 20.3028C67.5085 20.7627 68.1983 21.1076 68.8882 21.3376C69.5781 21.6825 70.6129 22.0275 71.7627 22.3724L74.9821 23.4072C75.9019 23.7521 76.7068 23.9821 77.3967 24.2121C78.0865 24.442 78.7764 24.787 79.4663 25.1319C80.1562 25.4768 80.7311 25.9367 81.306 26.3967C81.7659 26.8566 82.2258 27.3165 82.5707 27.8914C82.9157 28.4663 83.2606 29.1562 83.4906 29.846C83.7205 30.6509 83.8355 31.4557 83.8355 32.3756C83.8355 34.4452 83.2606 36.2849 82.2258 37.7796C81.191 39.2743 79.6962 40.4241 77.8566 41.229C76.1319 42.1488 73.9473 42.4937 71.6477 42.4937Z" fill="#101010"/>
<path d="M107.751 38.9293C105.452 41.2289 102.577 42.4937 98.8977 42.4937C95.2184 42.4937 92.3439 41.3439 90.0444 39.0443C87.7448 36.7447 86.71 33.6403 86.71 29.9609C86.71 26.1666 87.8598 23.1772 90.1593 20.8776C92.4589 18.578 95.3334 17.3132 99.0127 17.3132C102.577 17.3132 105.567 18.463 107.751 20.8776C110.051 23.1772 111.201 26.2816 111.201 29.9609C111.201 33.6403 110.051 36.6297 107.751 38.9293ZM98.8977 38.4694C101.197 38.4694 102.922 37.6645 104.187 36.1698C105.452 34.5601 106.141 32.6055 106.141 29.9609C106.141 27.4314 105.452 25.3618 104.187 23.7521C102.922 22.1424 101.197 21.3375 98.8977 21.3375C96.5982 21.3375 94.8735 22.1424 93.6087 23.7521C92.3439 25.2468 91.769 27.3164 91.769 29.846C91.769 32.3755 92.4589 34.4451 93.7237 36.0548C94.8735 37.6645 96.7131 38.4694 98.8977 38.4694Z" fill="#101010"/>
<path d="M114.19 41.8038V8.68982H119.019V41.9188H114.19V41.8038Z" fill="#101010"/>
<path d="M130.862 41.8038L121.893 17.8882H127.067L130.632 28.5812C130.747 29.0412 131.207 30.3059 131.896 32.3756C132.586 34.4452 133.046 35.9399 133.391 37.0897H133.506C133.851 35.8249 134.771 33.0654 136.266 28.6962L139.945 18.0032H145.004L135.921 41.9188H130.862V41.8038Z" fill="#101010"/>
<path d="M157.997 42.4937C154.318 42.4937 151.328 41.3439 149.143 39.0443C146.959 36.7447 145.924 33.7552 145.924 29.9609C145.924 27.5464 146.384 25.3618 147.419 23.4071C148.339 21.4525 149.833 19.9578 151.558 18.9229C153.398 17.7731 155.467 17.3132 157.882 17.3132C159.837 17.3132 161.561 17.6582 163.056 18.348C164.551 19.0379 165.815 20.0727 166.62 21.3375C167.54 22.6023 168.23 24.097 168.69 25.7067C169.15 27.3164 169.38 29.1561 169.38 31.1107H150.638C150.753 33.1804 151.443 34.905 152.823 36.2848C154.203 37.6645 155.927 38.3544 158.112 38.3544C159.837 38.3544 161.331 38.0095 162.481 37.2046C163.631 36.3998 164.551 35.4799 165.126 34.3301L169.15 36.0548C168.115 37.8945 166.735 39.3892 164.781 40.539C162.941 41.9188 160.756 42.4937 157.997 42.4937ZM150.638 27.5464H164.436C164.321 25.8217 163.631 24.212 162.481 22.9472C161.331 21.6824 159.722 21.1075 157.767 21.1075C155.812 21.1075 154.203 21.6824 152.938 22.9472C151.673 24.212 150.983 25.7067 150.638 27.5464Z" fill="#101010"/>
</svg>